<svg id="svg" version="1.1" xmlns="http://www.w3.org/2000/svg" xmlns:xlink="http://www.w3.org/1999/xlink" width="400" height="400" viewBox="0, 0, 400,400"><g id="svgg"><path id="path0" d="M178.054 43.880 C 177.754 44.000,176.287 45.290,174.795 46.749 C 171.751 49.722,170.097 51.162,169.919 50.989 C 169.854 50.925,169.350 51.483,168.800 52.228 C 168.250 52.973,167.530 53.679,167.200 53.797 C 166.256 54.133,163.600 56.583,163.600 57.117 C 163.600 57.383,163.255 57.945,162.833 58.367 C 161.641 59.559,161.540 61.827,161.675 84.480 C 161.771 100.674,161.916 105.676,162.300 106.060 C 162.575 106.335,162.800 106.974,162.800 107.480 C 162.800 107.986,162.960 108.400,163.157 108.400 C 163.353 108.400,163.628 108.855,163.767 109.412 C 163.947 110.128,164.372 110.494,165.219 110.664 C 165.878 110.796,166.514 111.060,166.632 111.252 C 166.750 111.443,167.602 111.605,168.524 111.611 L 170.200 111.622 168.700 113.016 C 167.875 113.783,167.200 114.557,167.200 114.736 C 167.200 114.914,166.736 115.496,166.169 116.029 C 165.602 116.562,164.509 118.034,163.740 119.299 C 162.971 120.565,162.145 121.600,161.904 121.600 C 161.664 121.600,161.581 121.714,161.720 121.854 C 161.860 121.993,161.620 122.557,161.187 123.108 C 160.754 123.658,160.400 124.444,160.400 124.854 C 160.400 125.264,160.220 125.600,160.000 125.600 C 159.780 125.600,159.594 125.825,159.586 126.100 C 159.579 126.375,159.225 127.320,158.800 128.200 C 158.375 129.080,158.021 130.104,158.014 130.476 C 158.006 130.848,157.820 131.264,157.600 131.400 C 157.380 131.536,157.200 132.076,157.200 132.600 C 157.200 133.124,157.030 133.658,156.823 133.786 C 156.616 133.914,156.333 134.869,156.196 135.909 C 156.058 136.949,155.788 138.160,155.595 138.600 C 155.402 139.040,155.125 140.390,154.978 141.600 C 154.831 142.810,154.571 143.980,154.400 144.200 C 154.229 144.420,153.963 145.545,153.807 146.700 C 153.652 147.854,153.362 148.900,153.163 149.023 C 152.963 149.146,152.799 149.552,152.798 149.924 C 152.796 150.296,152.526 151.116,152.198 151.746 C 151.869 152.376,151.600 153.099,151.600 153.353 C 151.600 153.855,149.431 159.331,148.749 160.552 C 148.517 160.966,148.244 161.776,148.141 162.352 C 148.037 162.928,147.784 163.460,147.576 163.533 C 147.369 163.607,147.200 163.922,147.200 164.233 C 147.200 164.545,147.034 164.800,146.832 164.800 C 146.629 164.800,146.348 165.328,146.206 165.972 C 146.064 166.617,145.690 167.359,145.374 167.621 C 145.058 167.883,144.800 168.346,144.800 168.649 C 144.800 168.952,144.590 169.200,144.333 169.200 C 144.077 169.200,143.973 169.306,144.103 169.436 C 144.232 169.566,143.805 170.601,143.153 171.736 C 142.500 172.871,141.777 174.295,141.544 174.900 C 141.312 175.505,140.959 176.000,140.761 176.000 C 140.562 176.000,140.400 176.338,140.400 176.751 C 140.400 177.164,140.130 177.726,139.800 178.000 C 139.470 178.274,139.200 178.746,139.200 179.049 C 139.200 179.352,139.028 179.600,138.818 179.600 C 138.608 179.600,138.318 180.230,138.174 181.000 C 138.029 181.770,137.790 182.400,137.642 182.400 C 137.494 182.400,137.029 182.985,136.609 183.700 C 136.189 184.415,135.610 185.238,135.322 185.529 C 135.035 185.819,134.800 186.314,134.800 186.629 C 134.800 186.943,134.623 187.200,134.408 187.200 C 134.192 187.200,133.906 187.637,133.772 188.171 C 133.637 188.705,133.274 189.239,132.964 189.359 C 132.654 189.478,132.400 189.851,132.400 190.187 C 132.400 190.524,132.236 190.800,132.036 190.800 C 131.835 190.800,131.286 191.565,130.816 192.500 C 129.762 194.595,129.149 195.604,128.500 196.312 C 128.225 196.612,128.000 197.114,128.000 197.429 C 128.000 197.743,127.820 198.000,127.600 198.000 C 127.380 198.000,127.200 198.270,127.200 198.600 C 127.200 198.930,127.020 199.200,126.800 199.200 C 126.580 199.200,126.399 199.425,126.398 199.700 C 126.396 199.975,126.120 200.727,125.784 201.372 C 125.286 202.326,125.268 202.640,125.686 203.058 C 126.384 203.755,126.831 203.351,127.967 201.000 C 128.498 199.900,129.623 197.952,130.467 196.672 C 131.310 195.391,132.000 194.129,132.000 193.868 C 132.000 193.606,132.367 193.163,132.816 192.883 C 133.264 192.603,133.523 192.200,133.392 191.987 C 133.260 191.774,133.305 191.600,133.490 191.600 C 133.676 191.600,134.164 191.015,134.576 190.300 C 134.987 189.585,136.252 187.560,137.386 185.800 C 138.521 184.040,139.798 181.883,140.224 181.006 C 140.651 180.129,141.225 179.172,141.500 178.878 C 141.775 178.583,142.000 178.159,142.000 177.933 C 142.000 177.708,142.355 177.025,142.788 176.417 C 143.222 175.808,143.462 175.195,143.322 175.055 C 143.181 174.915,143.277 174.800,143.533 174.800 C 143.790 174.800,144.000 174.455,144.000 174.033 C 144.000 173.612,144.135 173.207,144.300 173.133 C 144.672 172.968,145.597 171.380,147.292 168.000 C 148.009 166.570,148.747 165.290,148.932 165.155 C 149.117 165.021,149.276 164.751,149.285 164.555 C 149.321 163.795,150.465 160.896,151.422 159.138 C 151.740 158.554,152.000 157.699,152.000 157.238 C 152.000 156.777,152.136 156.400,152.302 156.400 C 152.646 156.400,153.551 153.991,153.880 152.200 C 154.001 151.540,154.258 150.802,154.450 150.560 C 154.642 150.317,154.913 149.287,155.053 148.269 C 155.192 147.251,155.445 146.504,155.614 146.609 C 155.783 146.713,156.051 145.681,156.210 144.315 C 156.368 142.950,156.634 141.555,156.800 141.216 C 157.347 140.100,158.000 137.758,158.000 136.914 C 158.000 135.929,159.411 131.128,160.226 129.340 C 160.542 128.646,160.800 127.881,160.800 127.640 C 160.800 127.398,160.966 127.200,161.168 127.200 C 161.371 127.200,161.655 126.660,161.800 126.000 C 161.945 125.340,162.185 124.800,162.334 124.800 C 162.483 124.800,162.835 124.281,163.115 123.646 C 163.396 123.011,163.980 122.084,164.413 121.585 C 164.846 121.086,165.200 120.435,165.200 120.139 C 165.200 119.842,165.362 119.600,165.561 119.600 C 165.759 119.600,166.254 119.075,166.661 118.433 C 167.067 117.792,168.311 116.307,169.426 115.133 C 170.540 113.960,171.569 112.685,171.713 112.300 C 171.953 111.659,172.821 111.600,182.056 111.600 C 191.066 111.600,192.219 111.526,192.905 110.905 C 193.633 110.246,193.698 110.246,194.180 110.905 C 194.739 111.669,206.000 111.991,206.000 111.243 C 206.000 110.567,207.260 110.403,207.858 111.001 C 208.363 111.505,210.288 111.600,220.042 111.600 L 231.627 111.600 232.800 112.800 C 233.445 113.460,234.159 114.000,234.387 114.000 C 234.614 114.000,234.800 114.165,234.800 114.366 C 234.800 114.567,235.515 115.512,236.389 116.466 C 237.263 117.420,237.983 118.322,237.989 118.471 C 237.995 118.621,238.254 118.997,238.565 119.308 C 239.306 120.048,240.800 122.848,240.800 123.494 C 240.800 123.772,240.980 124.000,241.200 124.000 C 241.420 124.000,241.600 124.270,241.600 124.600 C 241.600 124.930,241.780 125.200,242.000 125.200 C 242.220 125.200,242.370 125.335,242.333 125.500 C 242.202 126.084,242.895 128.812,243.227 129.017 C 243.412 129.131,243.685 130.303,243.834 131.621 C 243.983 132.939,244.262 134.114,244.453 134.233 C 244.644 134.351,244.813 135.562,244.829 136.924 C 244.845 138.286,245.016 140.300,245.208 141.400 C 246.040 146.154,246.512 148.224,246.844 148.580 C 247.040 148.789,247.200 149.374,247.200 149.880 C 247.200 150.386,247.364 150.800,247.565 150.800 C 247.766 150.800,248.051 151.519,248.200 152.398 C 248.348 153.277,248.614 154.085,248.789 154.193 C 248.965 154.302,249.228 155.023,249.373 155.796 C 249.518 156.568,249.787 157.200,249.971 157.200 C 250.301 157.200,250.928 158.711,250.843 159.300 C 250.819 159.465,250.980 159.600,251.200 159.600 C 251.420 159.600,251.600 159.870,251.600 160.200 C 251.600 160.530,251.760 160.800,251.957 160.800 C 252.153 160.800,252.426 161.250,252.564 161.800 C 252.702 162.350,252.992 162.800,253.208 162.800 C 253.423 162.800,253.600 162.971,253.600 163.180 C 253.600 163.653,256.051 167.351,256.486 167.534 C 256.662 167.608,256.724 167.799,256.625 167.959 C 256.526 168.119,256.885 168.762,257.423 169.387 C 257.960 170.013,258.400 170.684,258.400 170.879 C 258.400 171.208,258.712 171.652,259.847 172.933 C 260.093 173.210,260.420 173.834,260.574 174.319 C 260.728 174.803,261.022 175.200,261.227 175.200 C 261.432 175.200,261.600 175.470,261.600 175.800 C 261.600 176.130,261.751 176.400,261.936 176.400 C 262.120 176.400,262.488 176.805,262.752 177.300 C 263.943 179.534,267.278 184.578,267.667 184.733 C 267.850 184.807,268.000 185.127,268.000 185.446 C 268.000 185.764,268.270 186.129,268.600 186.255 C 268.930 186.382,269.200 186.673,269.200 186.901 C 269.200 187.130,270.280 189.064,271.600 191.200 C 272.920 193.336,274.000 195.290,274.000 195.542 C 274.000 195.794,274.160 196.000,274.355 196.000 C 274.551 196.000,274.829 196.630,274.974 197.400 C 275.118 198.170,275.408 198.800,275.618 198.800 C 275.828 198.800,276.000 199.064,276.000 199.388 C 276.000 201.101,278.247 204.095,278.828 203.155 C 279.302 202.388,279.136 201.761,277.679 198.806 C 276.976 197.379,276.400 196.012,276.400 195.767 C 276.400 195.523,276.040 194.907,275.600 194.400 C 275.160 193.893,274.800 193.235,274.800 192.939 C 274.800 192.642,274.620 192.400,274.400 192.400 C 274.180 192.400,274.000 192.117,274.000 191.771 C 274.000 191.426,273.775 190.892,273.500 190.585 C 272.340 189.292,272.000 188.814,272.000 188.477 C 272.000 188.281,271.460 187.375,270.800 186.463 C 270.140 185.552,269.600 184.625,269.600 184.403 C 269.600 184.182,269.420 184.000,269.200 184.000 C 268.980 184.000,268.800 183.813,268.800 183.584 C 268.800 183.190,267.283 180.830,266.754 180.400 C 266.619 180.290,266.381 179.795,266.227 179.300 C 266.072 178.805,265.819 178.400,265.665 178.400 C 265.510 178.400,264.941 177.590,264.400 176.600 C 263.859 175.610,263.278 174.800,263.108 174.800 C 262.939 174.800,262.800 174.530,262.800 174.200 C 262.800 173.870,262.623 173.600,262.408 173.600 C 262.192 173.600,261.906 173.163,261.772 172.629 C 261.637 172.095,261.274 171.561,260.964 171.441 C 260.654 171.322,260.400 171.072,260.400 170.885 C 260.400 170.610,257.510 165.998,255.584 163.200 C 254.875 162.170,254.024 160.630,253.760 159.900 C 253.621 159.515,253.348 159.200,253.153 159.200 C 252.959 159.200,252.800 158.930,252.800 158.600 C 252.800 158.270,252.640 158.000,252.445 158.000 C 252.249 158.000,251.971 157.370,251.826 156.600 C 251.682 155.830,251.412 155.200,251.226 155.200 C 251.041 155.200,250.771 154.570,250.626 153.800 C 250.482 153.030,250.214 152.400,250.032 152.400 C 249.849 152.400,249.565 151.815,249.399 151.100 C 249.233 150.385,249.040 149.620,248.968 149.400 C 248.366 147.543,247.200 142.513,247.200 141.773 C 247.200 141.264,247.047 140.753,246.861 140.638 C 246.675 140.522,246.399 138.409,246.249 135.941 C 246.100 133.473,245.825 131.262,245.639 131.027 C 245.453 130.792,245.177 129.745,245.026 128.700 C 244.875 127.655,244.582 126.800,244.375 126.800 C 244.169 126.800,244.000 126.455,244.000 126.032 C 244.000 125.210,242.797 122.688,242.300 122.467 C 242.135 122.393,242.000 122.016,242.000 121.628 C 242.000 121.240,241.676 120.548,241.279 120.091 C 240.883 119.634,240.212 118.617,239.788 117.830 C 239.365 117.044,238.879 116.400,238.709 116.400 C 238.539 116.400,238.400 116.227,238.400 116.017 C 238.400 115.806,237.410 114.686,236.200 113.529 C 233.700 111.138,233.633 110.979,234.973 110.642 C 235.509 110.508,236.061 110.039,236.200 109.599 C 236.340 109.160,236.622 108.800,236.827 108.800 C 237.032 108.800,237.200 108.476,237.200 108.080 C 237.200 107.684,237.425 107.134,237.700 106.858 C 238.292 106.264,238.163 86.257,237.559 85.126 C 237.362 84.756,237.200 81.291,237.200 77.426 C 237.200 73.382,237.043 70.400,236.830 70.400 C 236.625 70.400,236.401 67.773,236.330 64.533 C 236.236 60.289,236.062 58.619,235.700 58.499 C 235.425 58.408,235.200 58.127,235.200 57.874 C 235.200 57.429,231.757 54.000,231.310 54.000 C 231.187 54.000,230.607 53.505,230.022 52.900 C 229.436 52.295,228.482 51.450,227.902 51.023 C 227.322 50.596,226.938 50.101,227.048 49.923 C 227.157 49.745,226.989 49.600,226.674 49.600 C 226.358 49.600,225.290 48.835,224.300 47.900 C 219.942 43.786,218.156 42.776,217.400 44.000 C 217.241 44.257,210.537 44.400,198.600 44.400 C 186.663 44.400,179.959 44.257,179.800 44.000 C 179.535 43.572,178.934 43.530,178.054 43.880 M219.540 47.900 C 221.292 49.607,222.718 50.800,223.005 50.800 C 223.262 50.800,224.800 52.342,224.800 52.600 C 224.800 52.931,211.479 52.746,210.400 52.400 C 209.762 52.196,211.028 52.065,213.900 52.040 C 218.542 51.999,219.364 51.635,217.890 50.271 C 217.214 49.646,218.955 49.722,197.900 49.395 L 179.200 49.105 179.200 49.953 C 179.200 50.789,179.311 50.800,187.576 50.800 C 192.729 50.800,196.048 50.954,196.200 51.200 C 196.336 51.420,197.922 51.622,199.724 51.650 C 201.526 51.677,204.260 51.812,205.800 51.950 C 207.340 52.087,201.130 52.200,192.000 52.200 L 175.400 52.200 175.272 53.100 L 175.144 54.000 182.949 54.000 C 187.382 54.000,190.853 54.162,190.985 54.376 C 191.534 55.264,225.200 54.905,225.200 54.012 C 225.200 52.947,225.512 52.988,226.635 54.200 C 227.145 54.750,227.660 55.200,227.780 55.200 C 228.228 55.200,232.800 59.813,232.800 60.264 C 232.800 60.522,232.983 60.794,233.207 60.869 C 233.460 60.953,233.710 64.933,233.867 71.402 C 234.007 77.121,234.255 81.890,234.419 82.000 C 235.119 82.470,235.040 105.813,234.336 106.519 C 233.970 106.886,233.595 107.414,233.502 107.693 C 233.330 108.210,169.373 108.712,167.327 108.212 C 166.846 108.094,166.327 107.594,166.173 107.099 C 166.018 106.605,165.691 106.072,165.446 105.915 C 165.127 105.710,165.000 99.185,165.000 82.915 L 165.000 60.200 167.696 57.600 C 169.178 56.170,171.221 54.280,172.236 53.400 C 173.251 52.520,174.373 51.485,174.729 51.100 C 175.086 50.715,175.563 50.388,175.789 50.374 C 176.015 50.359,177.010 49.484,178.000 48.428 L 179.800 46.509 198.900 46.454 L 218.000 46.400 219.540 47.900 M183.600 56.274 C 182.610 56.371,181.629 56.619,181.420 56.825 C 181.211 57.031,180.277 57.200,179.344 57.200 C 178.411 57.200,177.551 57.356,177.432 57.548 C 177.314 57.739,175.774 58.021,174.009 58.175 C 170.954 58.442,170.800 58.502,170.800 59.427 L 170.800 60.400 177.776 60.400 C 181.996 60.400,184.850 60.242,185.000 60.000 C 185.155 59.749,189.305 59.600,196.124 59.599 C 202.106 59.599,211.725 59.480,217.500 59.335 L 228.000 59.072 228.000 58.136 L 228.000 57.200 214.280 57.200 C 203.905 57.200,200.439 57.079,200.065 56.705 C 199.562 56.202,187.541 55.887,183.600 56.274 M216.226 62.492 C 215.936 62.653,207.672 62.795,197.863 62.808 C 186.917 62.822,179.936 62.980,179.790 63.216 C 179.660 63.427,177.583 63.600,175.176 63.600 C 171.007 63.600,170.800 63.639,170.800 64.434 L 170.800 65.268 195.100 65.007 C 208.465 64.864,220.120 64.652,221.000 64.538 C 221.880 64.423,223.815 64.235,225.300 64.120 C 227.794 63.926,229.493 62.557,227.500 62.347 C 225.549 62.142,216.651 62.257,216.226 62.492 M218.400 65.258 C 208.232 66.012,195.868 66.848,192.008 67.043 C 189.702 67.160,187.632 67.404,187.408 67.585 C 187.184 67.766,183.265 68.046,178.700 68.206 C 174.135 68.367,170.400 68.656,170.400 68.849 C 170.400 69.042,169.950 69.200,169.400 69.200 C 168.667 69.200,168.400 69.413,168.400 70.000 C 168.400 70.664,168.667 70.800,169.967 70.800 C 170.828 70.800,171.593 70.979,171.667 71.197 C 171.876 71.820,193.552 72.180,197.200 71.622 C 198.850 71.369,202.180 70.988,204.600 70.776 C 207.020 70.563,209.360 70.224,209.800 70.022 C 210.240 69.820,212.351 69.578,214.491 69.484 C 216.632 69.389,218.612 69.127,218.891 68.901 C 219.171 68.675,220.345 68.363,221.500 68.207 C 222.654 68.052,223.700 67.762,223.823 67.563 C 223.946 67.363,224.656 67.200,225.400 67.200 C 226.144 67.200,226.864 67.020,227.000 66.800 C 227.136 66.580,228.047 66.400,229.024 66.400 C 230.533 66.400,230.800 66.280,230.800 65.600 C 230.800 64.701,227.236 64.603,218.400 65.258 M216.000 67.600 C 216.000 67.820,215.325 67.997,214.500 67.994 C 213.384 67.989,213.154 67.888,213.600 67.600 C 214.388 67.091,216.000 67.091,216.000 67.600 M207.700 68.295 C 206.545 68.376,205.600 68.585,205.600 68.761 C 205.600 68.936,203.396 69.204,200.703 69.357 C 198.010 69.509,195.634 69.806,195.423 70.017 C 194.940 70.500,179.728 70.530,179.430 70.049 C 179.310 69.854,182.924 69.567,187.506 69.406 C 192.068 69.246,195.991 68.961,196.224 68.772 C 196.605 68.463,201.704 68.188,207.600 68.159 L 209.800 68.148 207.700 68.295 M190.400 73.221 C 190.400 73.451,185.983 73.600,179.200 73.600 C 168.267 73.600,168.000 73.619,168.000 74.400 C 168.000 74.844,168.267 75.200,168.600 75.200 C 168.930 75.200,169.200 75.360,169.200 75.557 C 169.200 75.753,169.684 76.035,170.276 76.183 C 170.868 76.332,171.648 76.795,172.010 77.211 C 172.371 77.628,173.417 78.089,174.334 78.236 C 175.250 78.382,176.000 78.646,176.000 78.822 C 176.000 78.998,176.990 79.266,178.200 79.417 C 182.407 79.943,180.360 80.400,173.800 80.400 C 167.467 80.400,167.200 80.432,167.200 81.200 C 167.200 81.993,167.467 82.000,199.600 82.000 C 231.733 82.000,232.000 81.993,232.000 81.200 C 232.000 80.417,231.733 80.400,219.400 80.400 C 212.264 80.400,206.800 80.245,206.800 80.042 C 206.800 79.846,205.180 79.557,203.200 79.400 C 197.844 78.976,198.823 78.556,205.900 78.240 C 209.365 78.086,212.371 77.788,212.580 77.580 C 212.789 77.371,213.719 77.200,214.647 77.200 C 215.574 77.200,216.393 77.021,216.467 76.802 C 216.540 76.584,218.265 76.287,220.300 76.143 C 222.335 75.998,224.000 75.727,224.000 75.540 C 224.000 75.353,224.765 75.198,225.700 75.196 C 229.117 75.187,230.400 74.789,230.400 73.738 L 230.400 72.780 210.400 72.811 C 198.100 72.830,190.400 72.988,190.400 73.221 M214.400 75.266 C 211.259 75.922,206.355 76.335,201.324 76.368 C 198.540 76.386,196.341 76.572,196.200 76.800 C 196.064 77.020,194.703 77.200,193.176 77.200 C 191.592 77.200,190.400 77.372,190.400 77.600 C 190.400 77.849,188.133 78.000,184.400 78.000 C 180.667 78.000,178.400 77.849,178.400 77.600 C 178.400 77.380,177.950 77.200,177.400 77.200 C 176.850 77.200,176.400 77.020,176.400 76.800 C 176.400 76.580,176.142 76.400,175.826 76.400 C 175.510 76.400,174.745 76.175,174.126 75.900 C 173.161 75.472,174.116 75.371,180.800 75.197 C 195.297 74.819,216.336 74.862,214.400 75.266 M168.400 84.400 C 168.400 84.844,168.667 85.200,169.000 85.200 C 169.330 85.200,169.600 85.364,169.600 85.565 C 169.600 85.766,170.320 86.051,171.200 86.200 C 172.080 86.349,172.800 86.615,172.800 86.791 C 172.800 87.696,192.875 88.485,193.745 87.615 C 193.973 87.387,194.919 87.200,195.847 87.200 C 196.774 87.200,197.593 87.026,197.667 86.814 C 197.740 86.601,200.282 86.304,203.314 86.152 C 206.347 86.001,208.923 85.725,209.038 85.538 C 209.153 85.352,212.567 85.200,216.624 85.200 C 223.733 85.200,224.000 85.171,224.000 84.400 C 224.000 83.608,223.733 83.600,196.200 83.600 C 168.667 83.600,168.400 83.608,168.400 84.400 M193.600 85.600 C 193.600 85.855,190.400 86.000,184.800 86.000 C 179.200 86.000,176.000 85.855,176.000 85.600 C 176.000 85.345,179.200 85.200,184.800 85.200 C 190.400 85.200,193.600 85.345,193.600 85.600 M209.517 87.648 C 209.368 88.097,198.086 88.610,178.900 89.040 C 171.796 89.199,170.400 89.326,170.400 89.815 C 170.400 90.172,170.011 90.400,169.400 90.400 C 167.820 90.400,168.095 91.624,170.100 93.517 C 171.169 94.526,171.098 99.353,170.000 100.293 C 168.848 101.279,169.923 104.000,171.464 104.000 C 171.705 104.000,172.126 104.270,172.400 104.600 C 172.815 105.101,174.378 105.200,181.825 105.200 C 187.346 105.200,190.847 105.353,191.000 105.600 C 191.326 106.127,224.260 106.150,224.586 105.623 C 224.714 105.416,225.669 105.121,226.709 104.968 C 228.549 104.697,229.181 104.282,229.194 103.341 C 229.204 102.572,224.488 102.004,217.367 101.919 C 213.645 101.874,212.085 101.777,213.900 101.702 C 215.715 101.628,217.200 101.421,217.200 101.241 C 217.200 101.062,218.501 100.794,220.091 100.646 C 221.681 100.498,223.157 100.203,223.371 99.989 C 223.585 99.775,224.264 99.600,224.880 99.600 C 225.571 99.600,226.000 99.386,226.000 99.043 C 226.000 98.288,225.108 98.000,222.767 98.000 C 221.685 98.000,220.800 97.820,220.800 97.600 C 220.800 97.352,218.629 97.198,215.100 97.194 C 211.965 97.191,209.139 97.023,208.821 96.821 C 208.457 96.591,211.749 96.407,217.660 96.327 C 223.908 96.243,227.268 96.047,227.639 95.746 C 227.948 95.497,228.785 95.167,229.500 95.014 C 230.785 94.740,231.072 94.248,230.487 93.327 C 230.154 92.803,228.418 92.699,208.200 91.991 C 193.136 91.464,191.166 91.168,199.988 90.757 C 203.843 90.578,206.232 90.305,206.322 90.035 C 206.419 89.742,208.980 89.600,214.170 89.600 C 228.299 89.600,232.800 89.247,232.800 88.138 L 232.800 87.200 221.233 87.200 C 213.049 87.200,209.623 87.331,209.517 87.648 M181.020 92.380 C 181.229 92.589,184.280 92.823,187.800 92.900 C 191.320 92.978,194.560 93.147,195.000 93.277 C 195.440 93.407,201.519 93.646,208.509 93.809 C 228.815 94.281,223.762 94.800,198.847 94.800 C 184.079 94.800,175.960 94.659,175.800 94.400 C 175.664 94.180,174.946 94.000,174.205 94.000 C 172.923 94.000,171.600 93.173,171.600 92.371 C 171.600 91.880,180.528 91.888,181.020 92.380 M173.600 96.800 C 173.600 97.048,175.725 97.200,179.174 97.200 C 182.240 97.200,185.172 97.361,185.690 97.558 C 186.208 97.755,191.710 98.049,197.916 98.212 C 204.122 98.374,209.200 98.663,209.200 98.854 C 209.200 99.044,210.865 99.229,212.900 99.265 L 216.600 99.329 213.600 99.679 C 211.950 99.871,205.828 100.165,199.995 100.332 C 189.061 100.645,188.400 100.739,188.400 101.982 C 188.400 102.976,190.127 103.217,198.800 103.436 C 202.650 103.532,206.610 103.678,207.600 103.759 C 208.590 103.841,201.480 103.818,191.800 103.709 C 182.105 103.600,174.140 103.351,174.067 103.156 C 173.993 102.960,173.678 102.800,173.367 102.800 C 173.055 102.800,172.800 102.620,172.800 102.400 C 172.800 102.180,172.980 102.000,173.200 102.000 C 173.947 102.000,173.604 100.726,172.800 100.516 C 171.983 100.302,171.676 99.600,172.400 99.600 C 172.620 99.600,172.800 98.880,172.800 98.000 C 172.800 97.120,172.980 96.400,173.200 96.400 C 173.420 96.400,173.600 96.580,173.600 96.800 M150.985 173.305 C 151.108 179.737,151.341 189.770,151.504 195.600 L 151.800 206.200 153.900 206.321 C 155.055 206.387,156.000 206.612,156.000 206.821 C 156.000 207.029,157.069 207.200,158.376 207.200 C 159.683 207.200,160.855 207.365,160.979 207.566 C 161.104 207.767,162.554 208.059,164.203 208.213 C 165.851 208.368,167.200 208.632,167.200 208.801 C 167.200 208.970,168.187 209.231,169.394 209.382 C 170.600 209.533,171.680 209.807,171.794 209.991 C 171.908 210.175,172.901 210.449,174.000 210.600 C 175.100 210.751,176.000 211.018,176.000 211.193 C 176.000 211.368,176.652 211.633,177.449 211.783 C 178.246 211.932,179.191 212.207,179.549 212.394 C 182.756 214.064,185.898 214.730,186.250 213.814 C 186.574 212.969,186.009 212.382,183.729 211.200 C 182.668 210.650,181.710 210.089,181.600 209.954 C 181.490 209.819,180.958 209.570,180.419 209.401 C 179.879 209.232,179.191 208.848,178.890 208.547 C 178.589 208.246,178.086 208.000,177.771 208.000 C 177.457 208.000,177.200 207.820,177.200 207.600 C 177.200 207.380,176.945 207.200,176.633 207.200 C 176.322 207.200,176.007 207.065,175.933 206.900 C 175.761 206.513,172.835 205.106,171.817 204.922 C 171.387 204.844,170.935 204.619,170.813 204.422 C 170.692 204.225,170.099 203.940,169.496 203.788 C 168.893 203.637,168.400 203.353,168.400 203.157 C 168.400 202.960,167.950 202.800,167.400 202.800 C 166.850 202.800,166.400 202.634,166.400 202.432 C 166.400 202.229,165.815 201.938,165.100 201.786 C 164.385 201.633,163.620 201.369,163.400 201.200 C 163.180 201.031,162.370 200.771,161.600 200.623 C 160.830 200.475,159.795 200.153,159.300 199.909 L 158.400 199.465 158.400 181.132 L 158.400 162.800 156.880 162.800 C 156.044 162.800,155.189 162.643,154.980 162.452 C 154.771 162.260,153.736 161.993,152.681 161.857 L 150.762 161.610 150.985 173.305 M246.600 162.062 C 245.720 162.266,244.370 162.563,243.600 162.723 L 242.200 163.013 242.096 181.307 C 241.994 199.268,241.977 199.600,241.196 199.600 C 240.758 199.600,240.400 199.760,240.400 199.955 C 240.400 200.150,239.594 200.430,238.609 200.578 C 237.624 200.725,236.724 201.000,236.607 201.188 C 236.491 201.376,235.678 201.652,234.800 201.800 C 233.922 201.948,233.103 202.234,232.978 202.435 C 232.854 202.636,232.313 202.800,231.776 202.800 C 231.239 202.800,230.800 202.972,230.800 203.182 C 230.800 203.392,230.170 203.682,229.400 203.826 C 228.630 203.971,228.000 204.229,228.000 204.400 C 228.000 204.571,227.370 204.829,226.600 204.974 C 225.830 205.118,225.200 205.389,225.200 205.575 C 225.200 205.761,224.791 206.016,224.292 206.141 C 223.793 206.266,222.998 206.729,222.526 207.168 C 222.054 207.608,221.203 208.084,220.634 208.227 C 220.065 208.370,219.600 208.647,219.600 208.843 C 219.600 209.040,219.324 209.200,218.987 209.200 C 218.651 209.200,218.271 209.470,218.145 209.800 C 218.018 210.130,217.630 210.400,217.282 210.400 C 216.115 210.400,214.006 212.148,214.003 213.118 C 214.000 214.054,216.770 214.076,217.133 213.143 C 217.207 212.954,217.792 212.800,218.433 212.800 C 219.075 212.800,219.600 212.640,219.600 212.445 C 219.600 212.250,220.406 211.970,221.391 211.822 C 222.376 211.675,223.280 211.395,223.400 211.200 C 223.520 211.005,224.469 210.723,225.509 210.573 C 226.549 210.422,227.580 210.159,227.800 209.988 C 228.020 209.817,229.280 209.548,230.600 209.389 C 231.920 209.231,233.190 208.951,233.422 208.767 C 233.654 208.582,235.325 208.308,237.134 208.157 C 238.944 208.006,240.520 207.729,240.636 207.541 C 240.752 207.354,241.816 207.200,243.000 207.200 C 244.184 207.200,245.264 207.020,245.400 206.800 C 245.536 206.580,246.447 206.400,247.424 206.400 L 249.200 206.400 249.200 184.000 C 249.200 166.322,249.095 161.610,248.700 161.646 C 248.425 161.671,247.480 161.859,246.600 162.062 M282.195 216.300 C 282.363 217.785,282.623 222.150,282.772 226.000 C 282.922 229.850,283.103 232.910,283.174 232.800 C 283.480 232.332,283.445 217.151,283.138 216.962 C 282.952 216.847,282.800 216.043,282.800 215.176 C 282.800 214.266,282.608 213.600,282.345 213.600 C 282.020 213.600,281.978 214.371,282.195 216.300 M282.000 235.800 C 282.000 236.790,282.180 237.600,282.400 237.600 C 282.620 237.600,282.800 236.790,282.800 235.800 C 282.800 234.810,282.620 234.000,282.400 234.000 C 282.180 234.000,282.000 234.810,282.000 235.800 M281.701 239.400 C 281.705 240.280,281.787 240.593,281.883 240.095 C 281.979 239.598,281.975 238.878,281.875 238.495 C 281.775 238.113,281.696 238.520,281.701 239.400 M280.800 242.200 C 280.800 242.750,280.980 243.200,281.200 243.200 C 281.420 243.200,281.600 242.750,281.600 242.200 C 281.600 241.650,281.420 241.200,281.200 241.200 C 280.980 241.200,280.800 241.650,280.800 242.200 " stroke="none" fill="#13aeb3" fill-rule="evenodd"></path><path id="path1" d="M197.200 17.400 L 197.200 34.000 192.340 34.000 L 187.480 34.000 185.740 35.842 C 184.783 36.855,184.000 37.815,184.000 37.976 C 184.000 38.137,183.235 39.086,182.300 40.085 C 177.945 44.737,176.674 44.400,198.564 44.400 C 208.788 44.400,217.232 44.265,217.329 44.100 C 217.631 43.587,216.935 42.213,215.851 41.184 C 215.281 40.643,214.811 40.041,214.807 39.847 C 214.803 39.653,214.170 38.900,213.400 38.174 C 212.630 37.448,212.000 36.688,212.000 36.485 C 212.000 34.644,210.140 34.000,204.819 34.000 L 199.600 34.000 199.600 17.400 L 199.600 0.800 198.400 0.800 L 197.200 0.800 197.200 17.400 M219.300 62.294 C 220.345 62.376,222.055 62.376,223.100 62.294 C 224.145 62.212,223.290 62.144,221.200 62.144 C 219.110 62.144,218.255 62.212,219.300 62.294 M192.429 111.454 C 191.973 112.034,191.600 112.754,191.600 113.054 C 191.600 113.354,191.434 113.600,191.232 113.600 C 191.029 113.600,190.745 114.140,190.600 114.800 C 190.455 115.460,190.185 116.000,190.000 116.000 C 189.815 116.000,189.545 116.540,189.400 117.200 C 189.255 117.860,188.990 118.400,188.812 118.400 C 188.633 118.400,188.363 118.893,188.212 119.496 C 188.060 120.099,187.816 120.684,187.668 120.796 C 187.062 121.257,183.600 128.047,183.600 128.774 C 183.600 129.008,183.460 129.200,183.290 129.200 C 183.119 129.200,182.624 130.008,182.190 130.996 C 181.755 131.984,181.279 132.794,181.132 132.796 C 180.984 132.798,180.745 133.340,180.600 134.000 C 180.455 134.660,180.179 135.200,179.986 135.200 C 179.794 135.200,179.518 135.830,179.374 136.600 C 179.229 137.370,178.965 138.000,178.787 138.000 C 178.609 138.000,178.345 138.540,178.200 139.200 C 178.055 139.860,177.771 140.400,177.568 140.400 C 177.366 140.400,177.200 140.670,177.200 141.000 C 177.200 141.330,177.040 141.600,176.843 141.600 C 176.647 141.600,176.368 142.072,176.224 142.648 C 175.872 144.049,175.252 144.610,173.711 144.918 C 170.616 145.537,169.061 151.004,171.742 151.840 C 172.214 151.987,172.709 152.277,172.842 152.483 C 173.118 152.913,176.800 151.306,176.800 150.756 C 176.800 150.560,177.070 150.400,177.400 150.400 C 177.800 150.400,178.000 150.000,178.000 149.200 L 178.000 148.000 186.600 148.000 L 195.200 148.000 195.200 146.000 L 195.200 144.000 196.600 144.000 L 198.000 144.000 198.000 149.600 L 198.000 155.200 199.200 155.200 L 200.400 155.200 200.400 188.600 C 200.400 220.141,200.361 222.000,199.700 222.004 C 199.315 222.007,198.415 222.611,197.700 223.347 L 196.400 224.685 196.400 231.543 C 196.400 235.848,196.549 238.400,196.800 238.400 C 197.020 238.400,197.200 238.593,197.200 238.829 C 197.200 239.974,198.575 240.600,201.029 240.571 C 204.964 240.526,204.976 240.500,205.125 231.671 L 205.251 224.283 204.044 223.181 C 203.380 222.575,202.652 222.016,202.426 221.940 C 201.307 221.560,201.681 155.200,202.802 155.200 C 203.571 155.200,203.600 154.927,203.600 147.800 C 203.600 141.489,203.688 140.400,204.200 140.400 C 204.691 140.400,204.800 141.089,204.800 144.200 L 204.800 148.000 214.200 148.000 L 223.600 148.000 223.609 148.900 C 223.626 150.604,227.876 153.773,228.327 152.419 C 228.404 152.188,228.722 152.000,229.033 152.000 C 229.345 152.000,229.600 151.730,229.600 151.400 C 229.600 151.070,229.780 150.800,230.000 150.800 C 230.220 150.800,230.400 149.900,230.400 148.800 C 230.400 146.479,229.537 145.327,227.489 144.918 C 225.948 144.610,225.328 144.049,224.976 142.648 C 224.832 142.072,224.572 141.600,224.400 141.600 C 224.228 141.600,223.974 141.150,223.836 140.600 C 223.698 140.050,223.408 139.600,223.192 139.600 C 222.977 139.600,222.800 139.330,222.800 139.000 C 222.800 138.670,222.634 138.400,222.432 138.400 C 222.229 138.400,221.945 137.860,221.800 137.200 C 221.655 136.540,221.385 136.000,221.200 136.000 C 221.015 136.000,220.745 135.460,220.600 134.800 C 220.455 134.140,220.171 133.600,219.968 133.600 C 219.766 133.600,219.600 133.410,219.600 133.178 C 219.600 132.420,217.981 129.181,217.222 128.422 C 216.815 128.015,216.359 127.123,216.209 126.441 C 216.059 125.758,215.785 125.200,215.600 125.200 C 215.415 125.200,215.145 124.660,215.000 124.000 C 214.855 123.340,214.585 122.800,214.400 122.800 C 214.215 122.800,213.945 122.260,213.800 121.600 C 213.655 120.940,213.371 120.400,213.168 120.400 C 212.966 120.400,212.800 120.130,212.800 119.800 C 212.800 119.470,212.620 119.200,212.400 119.200 C 212.180 119.200,212.000 118.995,212.000 118.744 C 212.000 118.073,210.308 114.800,209.961 114.800 C 209.797 114.800,209.554 114.299,209.419 113.687 C 209.070 112.098,207.453 110.328,206.636 110.641 C 205.960 110.901,206.121 112.452,206.853 112.733 C 207.044 112.807,207.200 113.122,207.200 113.433 C 207.200 113.745,207.366 114.000,207.568 114.000 C 207.771 114.000,208.055 114.540,208.200 115.200 C 208.345 115.860,208.609 116.400,208.787 116.400 C 208.965 116.400,209.229 117.030,209.374 117.800 C 209.518 118.570,209.769 119.200,209.930 119.200 C 210.092 119.200,210.444 119.695,210.712 120.300 C 211.377 121.801,212.940 124.554,213.268 124.804 C 213.416 124.916,213.660 125.501,213.812 126.104 C 213.963 126.707,214.233 127.200,214.412 127.200 C 214.590 127.200,214.855 127.740,215.000 128.400 C 215.145 129.060,215.415 129.600,215.600 129.600 C 215.785 129.600,216.055 130.140,216.200 130.800 C 216.345 131.460,216.584 132.002,216.732 132.005 C 216.879 132.007,217.344 132.727,217.764 133.605 C 218.185 134.482,218.680 135.200,218.864 135.200 C 219.049 135.200,219.206 135.425,219.214 135.700 C 219.221 135.975,219.575 136.920,220.000 137.800 C 220.425 138.680,220.779 139.610,220.786 139.867 C 220.794 140.123,220.935 140.393,221.100 140.467 C 221.265 140.540,221.758 141.320,222.196 142.200 C 222.634 143.080,223.105 143.890,223.242 144.000 C 223.380 144.110,223.619 144.605,223.773 145.100 L 224.054 146.000 215.227 146.000 L 206.400 146.000 206.400 142.200 L 206.400 138.400 204.000 138.400 L 201.600 138.400 201.600 146.000 L 201.600 153.600 200.600 153.600 L 199.600 153.600 199.600 147.782 L 199.600 141.965 196.700 142.082 L 193.800 142.200 193.678 144.100 L 193.556 146.000 185.378 146.000 C 176.759 146.000,176.513 145.942,177.813 144.224 C 178.136 143.796,178.400 143.121,178.400 142.724 C 178.400 142.326,178.566 142.000,178.768 142.000 C 178.971 142.000,179.255 141.460,179.400 140.800 C 179.545 140.140,179.815 139.600,180.000 139.600 C 180.185 139.600,180.455 139.060,180.600 138.400 C 180.745 137.740,181.029 137.200,181.232 137.200 C 181.434 137.200,181.600 136.943,181.600 136.629 C 181.600 136.314,181.825 135.819,182.101 135.529 C 182.376 135.238,182.961 134.280,183.401 133.400 C 183.840 132.520,184.321 131.708,184.468 131.596 C 184.616 131.484,184.860 130.899,185.012 130.296 C 185.163 129.693,185.439 129.200,185.625 129.200 C 185.811 129.200,186.082 128.570,186.226 127.800 C 186.371 127.030,186.649 126.400,186.845 126.400 C 187.040 126.400,187.200 126.130,187.200 125.800 C 187.200 125.470,187.366 125.200,187.568 125.200 C 187.771 125.200,188.055 124.660,188.200 124.000 C 188.345 123.340,188.615 122.800,188.800 122.800 C 188.985 122.800,189.255 122.260,189.400 121.600 C 189.545 120.940,189.815 120.400,190.000 120.400 C 190.185 120.400,190.455 119.860,190.600 119.200 C 190.745 118.540,191.009 118.000,191.187 118.000 C 191.365 118.000,191.629 117.370,191.774 116.600 C 191.918 115.830,192.208 115.200,192.418 115.200 C 192.628 115.200,192.800 114.930,192.800 114.600 C 192.800 114.270,192.950 114.000,193.133 114.000 C 193.316 114.000,193.668 113.340,193.916 112.534 C 194.626 110.221,193.845 109.654,192.429 111.454 M162.243 155.833 C 161.867 156.813,161.969 198.131,162.348 198.730 C 162.533 199.022,163.431 199.361,164.342 199.483 C 165.254 199.605,166.000 199.849,166.000 200.024 C 166.000 200.199,166.990 200.466,168.200 200.617 C 169.410 200.768,170.400 201.049,170.400 201.241 C 170.400 201.433,171.120 201.706,172.000 201.846 C 172.880 201.987,173.600 202.259,173.600 202.451 C 173.600 202.643,173.870 202.800,174.200 202.800 C 174.530 202.800,174.800 202.980,174.800 203.200 C 174.800 203.420,175.079 203.600,175.421 203.600 C 176.109 203.600,179.326 205.234,179.529 205.687 C 179.600 205.845,180.269 206.089,181.015 206.229 C 181.826 206.381,182.466 206.778,182.604 207.214 C 182.732 207.616,183.368 208.061,184.018 208.204 C 184.668 208.347,185.200 208.617,185.200 208.805 C 185.200 208.993,185.597 209.272,186.081 209.426 C 186.566 209.580,187.209 209.952,187.510 210.253 C 187.811 210.554,188.314 210.800,188.629 210.800 C 188.943 210.800,189.200 210.980,189.200 211.200 C 189.200 211.420,189.560 211.600,190.000 211.600 C 190.975 211.600,191.142 209.706,190.200 209.345 C 189.870 209.218,189.600 208.880,189.600 208.592 C 189.600 208.305,188.475 206.892,187.100 205.452 C 185.725 204.011,183.610 201.747,182.400 200.420 C 181.190 199.093,180.057 198.005,179.882 198.003 C 179.707 198.001,179.114 197.550,178.564 197.000 C 178.014 196.450,177.302 196.000,176.982 196.000 C 176.662 196.000,176.400 195.820,176.400 195.600 C 176.400 195.380,176.124 195.200,175.787 195.200 C 175.451 195.200,175.073 194.935,174.949 194.611 C 174.824 194.287,174.110 193.907,173.361 193.766 C 172.613 193.626,172.000 193.351,172.000 193.155 C 172.000 192.960,171.775 192.794,171.500 192.787 C 171.225 192.779,170.595 192.436,170.100 192.023 L 169.200 191.272 169.200 174.330 L 169.200 157.389 167.597 156.694 C 166.716 156.312,165.816 156.000,165.597 156.000 C 165.379 156.000,165.200 155.820,165.200 155.600 C 165.200 154.919,162.512 155.130,162.243 155.833 M236.000 155.600 C 236.000 155.820,235.622 156.000,235.160 156.000 C 234.699 156.000,233.709 156.291,232.960 156.646 L 231.600 157.291 231.600 174.352 L 231.600 191.412 229.500 192.155 C 228.345 192.563,227.310 193.010,227.200 193.149 C 227.090 193.287,226.112 193.850,225.027 194.400 C 222.751 195.553,222.413 195.806,219.626 198.445 C 218.491 199.520,217.419 200.400,217.243 200.400 C 216.821 200.400,213.600 203.664,213.600 204.091 C 213.600 204.274,212.970 204.978,212.200 205.654 C 211.430 206.330,210.800 207.094,210.800 207.353 C 210.800 207.611,210.440 208.130,210.000 208.507 C 209.560 208.884,209.200 209.464,209.200 209.796 C 209.200 210.128,209.020 210.400,208.800 210.400 C 208.155 210.400,208.341 211.492,209.032 211.757 C 209.918 212.097,211.500 211.637,211.759 210.964 C 211.878 210.654,212.341 210.400,212.787 210.400 C 213.234 210.400,213.600 210.234,213.600 210.032 C 213.600 209.829,214.140 209.545,214.800 209.400 C 215.460 209.255,216.000 208.970,216.000 208.767 C 216.000 208.564,216.720 208.086,217.600 207.704 C 218.480 207.323,219.200 206.888,219.200 206.737 C 219.200 206.587,219.740 206.345,220.400 206.200 C 221.060 206.055,221.600 205.785,221.600 205.600 C 221.600 205.415,222.140 205.145,222.800 205.000 C 223.460 204.855,224.000 204.585,224.000 204.400 C 224.000 204.215,224.540 203.945,225.200 203.800 C 225.860 203.655,226.400 203.415,226.400 203.266 C 226.400 202.944,228.159 202.151,229.700 201.779 C 230.305 201.633,230.800 201.370,230.800 201.194 C 230.800 201.019,231.700 200.751,232.800 200.600 C 233.900 200.449,234.800 200.181,234.800 200.006 C 234.800 199.830,235.295 199.567,235.900 199.421 C 236.505 199.275,237.495 198.941,238.100 198.680 L 239.200 198.205 239.200 176.702 L 239.200 155.200 237.600 155.200 C 236.720 155.200,236.000 155.380,236.000 155.600 M283.293 223.200 C 283.293 223.970,283.375 224.285,283.476 223.900 C 283.576 223.515,283.576 222.885,283.476 222.500 C 283.375 222.115,283.293 222.430,283.293 223.200 " stroke="none" fill="#045c06" fill-rule="evenodd"></path><path id="path2" d="M222.800 149.957 C 222.800 150.153,222.350 150.426,221.800 150.564 C 221.250 150.702,220.800 150.992,220.800 151.208 C 220.800 151.423,220.524 151.600,220.187 151.600 C 219.851 151.600,219.471 151.870,219.345 152.200 C 219.218 152.530,218.941 152.800,218.729 152.800 C 218.516 152.800,218.092 153.025,217.785 153.300 C 216.569 154.391,216.023 154.800,215.783 154.800 C 215.452 154.800,209.200 161.048,209.200 161.378 C 209.200 161.622,208.795 162.165,207.700 163.385 C 207.425 163.692,207.200 164.136,207.200 164.371 C 207.200 164.607,207.034 164.800,206.832 164.800 C 206.629 164.800,206.345 165.340,206.200 166.000 C 206.055 166.660,205.785 167.200,205.600 167.200 C 205.415 167.200,205.145 167.740,205.000 168.400 C 204.855 169.060,204.573 169.600,204.373 169.600 C 204.173 169.600,203.894 170.320,203.754 171.200 C 203.613 172.080,203.341 172.800,203.149 172.800 C 202.957 172.800,202.796 174.015,202.790 175.500 C 202.785 176.985,202.624 178.920,202.432 179.800 C 202.240 180.680,201.961 188.465,201.812 197.100 L 201.541 212.800 202.390 212.800 C 203.220 212.800,205.200 211.047,205.200 210.312 C 205.200 210.108,205.920 209.295,206.800 208.505 C 207.680 207.715,208.400 206.904,208.400 206.703 C 208.400 206.502,209.165 205.547,210.100 204.581 C 211.035 203.615,212.011 202.594,212.268 202.312 C 212.525 202.031,213.581 201.080,214.614 200.200 C 215.647 199.320,217.014 198.116,217.652 197.525 C 218.289 196.934,219.152 196.342,219.569 196.210 C 219.985 196.078,220.427 195.706,220.550 195.385 C 220.674 195.063,221.051 194.800,221.387 194.800 C 221.724 194.800,222.000 194.623,222.000 194.408 C 222.000 194.192,222.450 193.902,223.000 193.764 C 223.550 193.626,224.000 193.353,224.000 193.157 C 224.000 192.960,224.270 192.800,224.600 192.800 C 224.930 192.800,225.200 192.632,225.200 192.427 C 225.200 192.222,225.597 191.928,226.081 191.774 C 228.048 191.150,228.000 191.649,228.000 171.614 L 228.000 152.772 226.300 152.030 C 225.365 151.622,224.373 150.909,224.097 150.444 C 223.589 149.593,222.800 149.296,222.800 149.957 M176.800 150.771 C 176.800 150.975,176.080 151.460,175.200 151.848 L 173.600 152.554 173.606 171.577 C 173.612 191.280,173.615 191.310,175.100 191.773 C 175.595 191.928,176.000 192.222,176.000 192.427 C 176.000 192.632,176.270 192.800,176.600 192.800 C 176.930 192.800,177.200 192.960,177.200 193.157 C 177.200 193.353,177.650 193.626,178.200 193.764 C 178.750 193.902,179.200 194.192,179.200 194.408 C 179.200 194.623,179.430 194.800,179.711 194.800 C 179.992 194.800,180.520 195.115,180.883 195.500 C 181.728 196.396,182.711 197.200,182.960 197.200 C 183.353 197.200,189.600 203.617,189.600 204.020 C 189.600 204.250,190.050 204.855,190.600 205.365 C 191.150 205.875,191.600 206.466,191.600 206.680 C 191.600 206.893,192.140 207.549,192.800 208.137 C 193.460 208.725,194.000 209.379,194.000 209.590 C 194.000 210.302,196.820 212.800,197.624 212.800 C 198.547 212.800,198.699 174.309,197.779 173.685 C 197.298 173.359,196.000 170.700,196.000 170.040 C 196.000 169.798,195.834 169.600,195.632 169.600 C 195.429 169.600,195.145 169.060,195.000 168.400 C 194.855 167.740,194.590 167.200,194.412 167.200 C 194.233 167.200,193.974 166.750,193.836 166.200 C 193.698 165.650,193.408 165.200,193.192 165.200 C 192.977 165.200,192.800 164.930,192.800 164.600 C 192.800 164.270,192.640 164.000,192.443 164.000 C 192.247 164.000,191.974 163.550,191.836 163.000 C 191.698 162.450,191.408 162.000,191.192 162.000 C 190.977 162.000,190.800 161.803,190.800 161.562 C 190.800 161.099,184.657 154.800,184.206 154.800 C 184.061 154.800,183.692 154.575,183.385 154.300 C 182.062 153.113,181.609 152.800,181.217 152.800 C 180.988 152.800,180.800 152.614,180.800 152.387 C 180.800 152.161,180.485 151.856,180.100 151.710 C 179.715 151.564,179.162 151.210,178.871 150.922 C 178.265 150.324,176.800 150.216,176.800 150.771 M124.800 203.800 C 124.800 204.350,124.641 204.800,124.446 204.800 C 124.251 204.800,123.968 205.790,123.817 207.000 C 123.666 208.210,123.395 209.200,123.215 209.200 C 123.035 209.200,122.791 209.785,122.673 210.500 C 122.554 211.215,122.273 212.610,122.046 213.600 C 121.820 214.590,121.627 216.255,121.617 217.300 C 121.608 218.345,121.420 219.200,121.200 219.200 C 120.704 219.200,120.645 235.457,121.140 235.763 C 121.327 235.879,121.598 237.366,121.742 239.068 C 121.886 240.771,122.183 242.343,122.402 242.562 C 122.621 242.781,122.800 243.464,122.800 244.080 C 122.800 244.696,122.959 245.200,123.154 245.200 C 123.349 245.200,123.632 246.190,123.783 247.400 C 123.934 248.610,124.202 249.600,124.378 249.600 C 124.554 249.600,124.813 250.320,124.954 251.200 C 125.094 252.080,125.373 252.800,125.573 252.800 C 125.773 252.800,126.055 253.340,126.200 254.000 C 126.345 254.660,126.629 255.200,126.832 255.200 C 127.034 255.200,127.200 255.470,127.200 255.800 C 127.200 256.130,127.360 256.400,127.555 256.400 C 127.751 256.400,128.029 257.030,128.174 257.800 C 128.318 258.570,128.589 259.200,128.775 259.200 C 128.961 259.200,129.237 259.693,129.388 260.296 C 129.540 260.899,129.784 261.484,129.932 261.596 C 130.079 261.708,130.549 262.485,130.975 263.323 C 131.402 264.160,132.153 265.280,132.644 265.810 C 133.136 266.340,133.654 267.140,133.796 267.587 C 133.938 268.034,134.222 268.400,134.427 268.400 C 134.632 268.400,134.800 268.636,134.800 268.924 C 134.800 269.768,143.440 279.184,144.240 279.213 C 144.438 279.220,145.221 279.850,145.981 280.613 C 146.740 281.376,147.555 282.000,147.792 282.000 C 148.029 282.000,148.483 282.360,148.800 282.800 C 149.117 283.240,149.613 283.600,149.901 283.600 C 150.189 283.600,150.529 283.870,150.655 284.200 C 150.782 284.530,151.123 284.800,151.414 284.800 C 151.705 284.800,152.189 285.046,152.490 285.347 C 152.791 285.648,153.434 286.020,153.919 286.174 C 154.403 286.328,154.800 286.622,154.800 286.827 C 154.800 287.032,155.070 287.200,155.400 287.200 C 155.730 287.200,156.000 287.377,156.000 287.592 C 156.000 287.808,156.450 288.098,157.000 288.236 C 157.550 288.374,158.000 288.647,158.000 288.843 C 158.000 289.040,158.242 289.200,158.539 289.200 C 158.835 289.200,159.493 289.560,160.000 290.000 C 160.507 290.440,161.255 290.800,161.661 290.800 C 162.068 290.800,162.400 290.972,162.400 291.182 C 162.400 291.392,163.030 291.682,163.800 291.826 C 164.570 291.971,165.200 292.205,165.200 292.347 C 165.200 292.714,167.159 293.533,168.803 293.854 C 169.571 294.003,170.307 294.288,170.437 294.485 C 170.568 294.683,171.693 294.950,172.937 295.078 C 174.182 295.207,175.200 295.448,175.200 295.615 C 175.200 295.782,176.460 296.045,178.000 296.200 C 179.540 296.355,180.800 296.625,180.800 296.800 C 180.800 297.143,182.237 297.366,188.800 298.037 C 193.910 298.560,210.704 298.256,211.331 297.629 C 211.567 297.393,212.613 297.200,213.656 297.200 C 214.699 297.200,215.653 297.038,215.775 296.841 C 215.897 296.643,217.258 296.355,218.798 296.200 C 220.339 296.045,221.600 295.782,221.600 295.615 C 221.600 295.448,222.618 295.207,223.863 295.078 C 225.107 294.950,226.232 294.672,226.363 294.462 C 226.493 294.251,227.455 293.950,228.500 293.794 C 229.545 293.637,230.400 293.350,230.400 293.155 C 230.400 292.960,230.760 292.800,231.200 292.800 C 231.640 292.800,232.000 292.643,232.000 292.451 C 232.000 292.259,232.696 291.991,233.547 291.855 C 234.398 291.719,235.613 291.337,236.247 291.006 C 236.881 290.676,237.625 290.404,237.900 290.402 C 238.175 290.401,238.400 290.234,238.400 290.032 C 238.400 289.829,238.940 289.545,239.600 289.400 C 240.260 289.255,240.800 288.971,240.800 288.768 C 240.800 288.566,241.177 288.400,241.638 288.400 C 242.500 288.400,244.571 287.387,245.521 286.500 C 245.816 286.225,246.314 286.000,246.629 286.000 C 246.943 286.000,247.200 285.840,247.200 285.643 C 247.200 285.447,247.650 285.174,248.200 285.036 C 248.750 284.898,249.200 284.608,249.200 284.392 C 249.200 284.177,249.438 284.000,249.728 284.000 C 250.018 284.000,250.861 283.460,251.600 282.800 C 252.339 282.140,253.182 281.600,253.472 281.600 C 253.762 281.600,254.000 281.432,254.000 281.227 C 254.000 281.022,254.388 280.731,254.862 280.580 C 255.337 280.430,256.122 279.877,256.608 279.353 C 257.094 278.829,257.667 278.400,257.880 278.400 C 258.094 278.400,258.883 277.724,259.634 276.899 C 260.385 276.073,261.450 275.101,262.000 274.739 C 263.659 273.647,266.400 270.810,266.400 270.185 C 266.400 269.863,266.571 269.600,266.780 269.600 C 267.321 269.600,269.596 267.098,269.598 266.500 C 269.599 266.225,269.738 266.000,269.906 266.000 C 270.074 266.000,270.656 265.280,271.200 264.400 C 271.744 263.520,272.326 262.800,272.494 262.800 C 272.662 262.800,272.800 262.530,272.800 262.200 C 272.800 261.870,272.977 261.600,273.192 261.600 C 273.408 261.600,273.698 261.150,273.836 260.600 C 273.974 260.050,274.233 259.600,274.412 259.600 C 274.590 259.600,274.855 259.060,275.000 258.400 C 275.145 257.740,275.415 257.200,275.600 257.200 C 275.785 257.200,276.055 256.660,276.200 256.000 C 276.345 255.340,276.629 254.800,276.832 254.800 C 277.034 254.800,277.200 254.551,277.200 254.246 C 277.200 253.941,277.469 253.176,277.798 252.546 C 278.126 251.916,278.396 251.096,278.398 250.724 C 278.399 250.352,278.564 249.946,278.765 249.822 C 278.966 249.697,279.252 248.878,279.400 248.000 C 279.548 247.122,279.826 246.308,280.016 246.190 C 280.207 246.072,280.485 244.901,280.633 243.588 C 280.782 242.275,281.047 241.200,281.222 241.200 C 281.397 241.200,281.667 239.580,281.822 237.600 C 281.976 235.620,282.271 234.000,282.476 234.000 C 283.350 234.000,282.097 209.755,281.195 209.197 C 281.011 209.083,280.739 207.907,280.589 206.582 C 280.308 204.100,279.409 202.233,278.884 203.042 C 278.728 203.284,277.340 203.606,275.800 203.760 C 274.260 203.913,272.940 204.210,272.867 204.419 C 272.793 204.629,272.454 204.800,272.112 204.800 C 271.420 204.800,271.634 208.569,272.408 210.016 C 272.624 210.418,272.800 211.263,272.800 211.894 C 272.800 212.524,272.987 213.227,273.215 213.455 C 273.443 213.683,273.740 216.374,273.875 219.435 C 274.015 222.616,274.301 225.117,274.542 225.274 C 274.835 225.464,274.826 225.830,274.513 226.474 C 274.265 226.983,273.953 229.740,273.820 232.600 C 273.688 235.460,273.404 237.860,273.189 237.933 C 272.975 238.007,272.794 238.457,272.787 238.933 C 272.774 239.797,271.630 243.406,271.106 244.238 C 270.954 244.479,270.710 245.424,270.563 246.338 C 270.417 247.252,270.155 248.000,269.981 248.000 C 269.806 248.000,269.545 248.540,269.400 249.200 C 269.255 249.860,268.973 250.400,268.773 250.400 C 268.573 250.400,268.294 251.120,268.154 252.000 C 268.013 252.880,267.741 253.600,267.549 253.600 C 267.357 253.600,267.200 253.851,267.200 254.157 C 267.200 254.464,266.930 254.818,266.600 254.945 C 266.270 255.071,266.000 255.451,266.000 255.787 C 266.000 256.124,265.823 256.400,265.608 256.400 C 265.392 256.400,265.102 256.850,264.964 257.400 C 264.826 257.950,264.565 258.400,264.384 258.400 C 264.202 258.400,263.938 258.765,263.797 259.210 C 263.655 259.656,262.923 260.619,262.170 261.350 C 261.416 262.082,260.800 262.817,260.800 262.983 C 260.800 263.341,253.756 270.400,253.399 270.400 C 253.036 270.400,249.852 272.919,249.480 273.500 C 249.304 273.775,248.976 274.000,248.752 274.000 C 248.527 274.000,248.092 274.225,247.785 274.500 C 246.714 275.461,246.192 275.809,245.089 276.299 C 244.478 276.571,243.873 277.065,243.746 277.397 C 243.619 277.728,243.219 278.001,242.857 278.003 C 242.496 278.004,241.660 278.363,241.000 278.800 C 240.340 279.237,239.485 279.596,239.100 279.597 C 238.715 279.599,238.400 279.766,238.400 279.968 C 238.400 280.171,237.860 280.455,237.200 280.600 C 236.540 280.745,236.000 281.015,236.000 281.200 C 236.000 281.385,235.460 281.655,234.800 281.800 C 234.140 281.945,233.600 282.185,233.600 282.334 C 233.600 282.736,231.463 283.608,229.830 283.873 C 229.043 284.000,228.400 284.250,228.400 284.428 C 228.400 284.606,227.590 284.872,226.600 285.021 C 225.610 285.169,224.800 285.437,224.800 285.617 C 224.800 285.796,223.810 286.066,222.600 286.217 C 221.390 286.368,220.400 286.651,220.400 286.846 C 220.400 287.041,219.860 287.200,219.200 287.200 C 218.540 287.200,218.000 287.364,218.000 287.564 C 218.000 287.764,216.425 288.058,214.500 288.216 C 212.575 288.374,210.872 288.705,210.715 288.952 C 210.306 289.593,185.285 289.584,184.885 288.942 C 184.728 288.689,183.385 288.354,181.900 288.195 C 180.415 288.036,179.200 287.748,179.200 287.553 C 179.200 287.359,178.480 287.200,177.600 287.200 C 176.720 287.200,176.000 287.037,176.000 286.838 C 176.000 286.638,175.100 286.351,174.000 286.200 C 172.900 286.049,172.000 285.762,172.000 285.562 C 172.000 285.363,171.685 285.199,171.300 285.198 C 170.915 285.196,170.117 284.943,169.527 284.635 C 168.937 284.327,167.902 283.954,167.227 283.806 C 166.552 283.658,166.000 283.392,166.000 283.215 C 166.000 283.038,165.685 282.788,165.300 282.658 C 164.540 282.403,163.121 281.549,162.800 281.154 C 162.690 281.019,162.195 280.781,161.700 280.627 C 161.205 280.472,160.800 280.178,160.800 279.973 C 160.800 279.768,160.613 279.600,160.384 279.600 C 159.910 279.600,157.469 277.955,157.267 277.500 C 157.193 277.335,156.878 277.200,156.567 277.200 C 156.255 277.200,156.000 277.032,156.000 276.827 C 156.000 276.622,155.612 276.331,155.138 276.180 C 154.663 276.030,153.878 275.477,153.392 274.953 C 152.906 274.429,152.324 274.000,152.098 274.000 C 151.477 274.000,142.800 265.213,142.800 264.584 C 142.800 264.462,142.350 263.945,141.800 263.435 C 141.250 262.925,140.800 262.317,140.800 262.083 C 140.800 261.849,140.575 261.419,140.300 261.129 C 140.025 260.838,139.388 259.790,138.885 258.800 C 137.773 256.613,137.089 255.467,136.732 255.196 C 136.584 255.084,136.340 254.499,136.188 253.896 C 136.037 253.293,135.767 252.800,135.588 252.800 C 135.410 252.800,135.145 252.260,135.000 251.600 C 134.855 250.940,134.585 250.400,134.400 250.400 C 134.215 250.400,133.945 249.860,133.800 249.200 C 133.655 248.540,133.371 248.000,133.168 248.000 C 132.966 248.000,132.800 247.550,132.800 247.000 C 132.800 246.450,132.641 246.000,132.446 246.000 C 132.251 246.000,131.968 245.010,131.817 243.800 C 131.666 242.590,131.394 241.600,131.213 241.600 C 131.032 241.600,130.756 240.160,130.600 238.400 C 130.444 236.640,130.155 235.200,129.958 235.200 C 129.759 235.200,129.600 231.647,129.600 227.200 C 129.600 222.800,129.757 219.200,129.948 219.200 C 130.140 219.200,130.420 217.944,130.572 216.409 C 130.723 214.874,130.998 213.525,131.184 213.410 C 131.369 213.295,131.647 212.121,131.800 210.801 C 131.953 209.480,132.241 208.400,132.439 208.400 C 132.638 208.400,132.800 207.950,132.800 207.400 C 132.800 206.850,132.963 206.400,133.163 206.400 C 133.362 206.400,133.431 206.040,133.316 205.600 C 133.200 205.157,132.770 204.800,132.353 204.800 C 131.939 204.800,131.600 204.641,131.600 204.446 C 131.600 204.156,128.408 203.505,126.528 203.413 C 126.269 203.400,125.924 203.257,125.762 203.095 C 125.191 202.524,124.800 202.811,124.800 203.800 " stroke="none" fill="#ec630c" fill-rule="evenodd"></path></g></svg>